/* XPM */
static const char * fbrun_xpm[] = {
"32 32 433 2",
"  	c None",
". 	c #000000",
"+ 	c #574448",
"@ 	c #574549",
"# 	c #59464A",
"$ 	c #59474B",
"% 	c #5B484C",
"& 	c #5C494D",
"* 	c #5D4B4E",
"= 	c #5D4C4F",
"- 	c #5E4D51",
"; 	c #5F4D51",
"> 	c #614E52",
", 	c #624F54",
"' 	c #635154",
") 	c #635155",
"! 	c #655256",
"~ 	c #655357",
"{ 	c #675458",
"] 	c #685559",
"^ 	c #68575A",
"/ 	c #675659",
"( 	c #615054",
"_ 	c #5F4E52",
": 	c #5A484C",
"< 	c #584549",
"[ 	c #241D1E",
"} 	c #5A474A",
"| 	c #5B484B",
"1 	c #5C4A4C",
"2 	c #5E4B4F",
"3 	c #5E4D50",
"4 	c #604D51",
"5 	c #5F4E51",
"6 	c #624F53",
"7 	c #625054",
"8 	c #645255",
"9 	c #645356",
"0 	c #655358",
"a 	c #665558",
"b 	c #69585A",
"c 	c #6A595D",
"d 	c #6A5A5C",
"e 	c #67575A",
"f 	c #614F52",
"g 	c #5E4C4F",
"h 	c #5C484D",
"i 	c #58464A",
"j 	c #231C1E",
"k 	c #5A484B",
"l 	c #5A494C",
"m 	c #5C494E",
"n 	c #5D4A4E",
"o 	c #5F4D4F",
"p 	c #604E51",
"q 	c #625053",
"r 	c #655255",
"s 	c #655356",
"t 	c #665557",
"u 	c #675558",
"v 	c #68575B",
"w 	c #69595C",
"x 	c #6A595C",
"y 	c #6B5A5E",
"z 	c #6C5B5F",
"A 	c #6C5A5E",
"B 	c #69585B",
"C 	c #665459",
"D 	c #625052",
"E 	c #5F4D50",
"F 	c #5A474B",
"G 	c #554246",
"H 	c #614F53",
"I 	c #625154",
"J 	c #645155",
"K 	c #655257",
"L 	c #655457",
"M 	c #675559",
"N 	c #68565A",
"O 	c #69575B",
"P 	c #6B595C",
"Q 	c #6B595E",
"R 	c #6D5B5E",
"S 	c #6D5C5F",
"T 	c #6F5D60",
"U 	c #6F5E61",
"V 	c #6A585C",
"W 	c #685659",
"X 	c #5F4D52",
"Y 	c #5D4B4F",
"Z 	c #594649",
"` 	c #554346",
" .	c #604E52",
"..	c #615053",
"+.	c #635255",
"@.	c #665457",
"#.	c #67565A",
"$.	c #68585B",
"%.	c #6B595D",
"&.	c #6B5B5E",
"*.	c #6D5D60",
"=.	c #6F5D61",
"-.	c #715F62",
";.	c #705F63",
">.	c #6E5C5F",
",.	c #6C5A5D",
"'.	c #5E4C50",
").	c #5B494D",
"!.	c #645256",
"~.	c #6D5C60",
"{.	c #6E5D60",
"].	c #6F5E62",
"^.	c #715F63",
"/.	c #726064",
"(.	c #726164",
"_.	c #726265",
":.	c #6E5D61",
"<.	c #6C5B5D",
"[.	c #6A585B",
"}.	c #5C4A4D",
"|.	c #6B595B",
"1.	c #6C5B5E",
"2.	c #6D5C5E",
"3.	c #6E5C60",
"4.	c #6F5E60",
"5.	c #705E62",
"6.	c #705F62",
"7.	c #615355",
"8.	c #56484B",
"9.	c #473D3E",
"0.	c #2D2728",
"a.	c #181515",
"b.	c #0B090A",
"c.	c #100E0E",
"d.	c #1C1718",
"e.	c #261F20",
"f.	c #282123",
"g.	c #32292A",
"h.	c #3E3234",
"i.	c #4C3C40",
"j.	c #6B5A5D",
"k.	c #6D5B5F",
"l.	c #6E5E61",
"m.	c #706062",
"n.	c #6B5C5F",
"o.	c #57494C",
"p.	c #483D3F",
"q.	c #080504",
"r.	c #22150F",
"s.	c #3D261A",
"t.	c #5A3827",
"u.	c #8D583D",
"v.	c #B7724F",
"w.	c #D1825A",
"x.	c #D0815A",
"y.	c #C57A55",
"z.	c #A96949",
"A.	c #925A3F",
"B.	c #89553B",
"C.	c #6F4530",
"D.	c #503223",
"E.	c #281911",
"F.	c #4A3B3D",
"G.	c #6B585B",
"H.	c #706063",
"I.	c #66575A",
"J.	c #3F3637",
"K.	c #0C0705",
"L.	c #382318",
"M.	c #573626",
"N.	c #9F6345",
"O.	c #D7855D",
"P.	c #E38D62",
"Q.	c #E78F64",
"R.	c #C67B55",
"S.	c #A66747",
"T.	c #825138",
"U.	c #41281C",
"V.	c #1E130D",
"W.	c #130C08",
"X.	c #0D0805",
"Y.	c #0A0604",
"Z.	c #060403",
"`.	c #050302",
" +	c #040202",
".+	c #716163",
"++	c #695A5D",
"@+	c #160E09",
"#+	c #69412D",
"$+	c #B06D4C",
"%+	c #DE8A60",
"&+	c #E89064",
"*+	c #D6855C",
"=+	c #452B1E",
"-+	c #120B08",
";+	c #211C1D",
">+	c #322B2C",
",+	c #514547",
"'+	c #4B3F42",
")+	c #463B3D",
"!+	c #473B3E",
"~+	c #4A3E3F",
"{+	c #4F4144",
"]+	c #524346",
"^+	c #564648",
"/+	c #5B494C",
"(+	c #726165",
"_+	c #42393B",
":+	c #6A422D",
"<+	c #BD7552",
"[+	c #B26F4D",
"}+	c #583726",
"|+	c #1A100B",
"1+	c #362F30",
"2+	c #1F1B1C",
"3+	c #190F0B",
"4+	c #2B1B12",
"5+	c #372218",
"6+	c #482D1F",
"7+	c #4F3122",
"8+	c #4B2E20",
"9+	c #3F271B",
"0+	c #2E1D14",
"a+	c #554448",
"b+	c #716064",
"c+	c #736265",
"d+	c #736266",
"e+	c #756367",
"f+	c #383032",
"g+	c #3E261B",
"h+	c #C27854",
"i+	c #BA7350",
"j+	c #442A1D",
"k+	c #110B07",
"l+	c #150D09",
"m+	c #AC6B4A",
"n+	c #CC7E58",
"o+	c #CF8159",
"p+	c #BE7652",
"q+	c #995F42",
"r+	c #6E442F",
"s+	c #3B2519",
"t+	c #241710",
"u+	c #0F0906",
"v+	c #57464A",
"w+	c #736165",
"x+	c #756569",
"y+	c #342C2E",
"z+	c #563625",
"A+	c #D9865D",
"B+	c #D5845C",
"C+	c #754933",
"D+	c #5E3A28",
"E+	c #D9875E",
"F+	c #945C40",
"G+	c #2A1A12",
"H+	c #3A3132",
"I+	c #43383A",
"J+	c #4E4143",
"K+	c #57474A",
"L+	c #58484B",
"M+	c #5B4A4E",
"N+	c #746366",
"O+	c #42393A",
"P+	c #E28C61",
"Q+	c #764933",
"R+	c #975E41",
"S+	c #DF8A60",
"T+	c #0E0806",
"U+	c #2C2627",
"V+	c #615254",
"W+	c #6A5B5E",
"X+	c #6E5E62",
"Y+	c #5F4C51",
"Z+	c #625456",
"`+	c #E08B60",
" @	c #BB7451",
".@	c #D8865D",
"+@	c #8E583D",
"@@	c #352117",
"#@	c #282324",
"$@	c #594E50",
"%@	c #766668",
"&@	c #7B6A6D",
"*@	c #78686B",
"=@	c #766669",
"-@	c #746367",
";@	c #6D5D5F",
">@	c #69575A",
",@	c #3A3233",
"'@	c #724731",
")@	c #A26546",
"!@	c #2C1B13",
"~@	c #322C2D",
"{@	c #64585A",
"]@	c #807073",
"^@	c #7E6E71",
"/@	c #7D6D6F",
"(@	c #7B6B6E",
"_@	c #79696C",
":@	c #77676A",
"<@	c #746468",
"[@	c #614F54",
"}@	c #CF8059",
"|@	c #563525",
"1@	c #5D5254",
"2@	c #837376",
"3@	c #827275",
"4@	c #817174",
"5@	c #806F72",
"6@	c #7E6D71",
"7@	c #77666A",
"8@	c #78676B",
"9@	c #766568",
"0@	c #716063",
"a@	c #665456",
"b@	c #635054",
"c@	c #625356",
"d@	c #20140E",
"e@	c #433A3C",
"f@	c #7F6E72",
"g@	c #847477",
"h@	c #827276",
"i@	c #6D5F61",
"j@	c #746466",
"k@	c #6A5A5D",
"l@	c #635456",
"m@	c #E68F63",
"n@	c #815038",
"o@	c #564B4D",
"p@	c #837375",
"q@	c #837275",
"r@	c #827174",
"s@	c #615556",
"t@	c #633E2B",
"u@	c #020101",
"v@	c #78676A",
"w@	c #010100",
"x@	c #965D41",
"y@	c #915A3E",
"z@	c #5F3B29",
"A@	c #7F6F72",
"B@	c #817073",
"C@	c #817274",
"D@	c #807174",
"E@	c #5A4F51",
"F@	c #030201",
"G@	c #9A5F42",
"H@	c #443B3D",
"I@	c #7A6A6D",
"J@	c #746266",
"K@	c #5E4E51",
"L@	c #180F0A",
"M@	c #AA6A49",
"N@	c #492D1F",
"O@	c #321F16",
"P@	c #615557",
"Q@	c #756769",
"R@	c #66595B",
"S@	c #23150F",
"T@	c #A56647",
"U@	c #776669",
"V@	c #756467",
"W@	c #6C595D",
"X@	c #6A575B",
"Y@	c #665559",
"Z@	c #615155",
"`@	c #523323",
" #	c #DC895F",
".#	c #553524",
"+#	c #1F1A1B",
"@#	c #2F2829",
"##	c #3E3637",
"$#	c #373031",
"%#	c #140C09",
"&#	c #2F1D14",
"*#	c #DB885F",
"=#	c #2D1C13",
"-#	c #554A4C",
";#	c #7A696D",
">#	c #79696B",
",#	c #786769",
"'#	c #756568",
")#	c #AB6A4A",
"!#	c #7A4C35",
"~#	c #744832",
"{#	c #835138",
"]#	c #9E6244",
"^#	c #BC7551",
"/#	c #B8724F",
"(#	c #3A3234",
"_#	c #766569",
":#	c #766567",
"<#	c #746467",
"[#	c #746265",
"}#	c #736164",
"|#	c #393031",
"1#	c #6B432E",
"2#	c #784B34",
"3#	c #855239",
"4#	c #B4704E",
"5#	c #D3835B",
"6#	c #A66748",
"7#	c #5B3827",
"8#	c #4A4042",
"9#	c #6F5F61",
"0#	c #645456",
"a#	c #3B3133",
"b#	c #362D2F",
"c#	c #5E4F52",
"d#	c #312A2B",
"e#	c #1A1717",
"f#	c #090808",
"g#	c #221D1E",
"h#	c #493F40",
"i#	c #706163",
"j#	c #736366",
"k#	c #665458",
"l#	c #79686B",
"m#	c #6D5A5E",
"n#	c #69585C",
"o#	c #675759",
"p#	c #756468",
"q#	c #746365",
"r#	c #716164",
"s#	c #705F61",
"t#	c #635055",
"u#	c #292123",
"v#	c #6F5F62",
"w#	c #625155",
"x#	c #282022",
"y#	c #655456",
"z#	c #665357",
"    . . . . . . . . . . . . . . . . . . . . . . . . . . . .     ",
"    . + @ # $ % & * = - ; > , ' ) ! ~ { ] ^ / ! ( _ * : < .     ",
". . [ } | 1 * 2 3 4 5 6 7 8 9 0 a / ^ b c d e ~ ' f g h i j . . ",
". k l m n = o p f q ' r s t u ^ v w x y z A B C 8 D E m F < G . ",
". n g E 5 H 6 I J K L M N ^ O P Q R S T U R V W s ' X Y % Z ` . ",
". ;  .f ..+.8 ~ @.M #.$.V %.&.R *.=.U -.;.>.,.B @.8 H '.).$ + . ",
". q 7 !.K @.M W v w P ,.R ~.{.].^./.(._.^.:.<.[.{ ! ( ; }.k @ . ",
". 8 L { / N B |.%.1.2.3.4.5.6.{.7.8.9.0.a.b.b.c.d.e.f.g.h.i.Z . ",
". M W O V j.j.k.3.l.U m.n.o.p.q.r.s.t.u.v.w.x.y.z.A.B.C.D.E.F.. ",
". [.G.%.A ~.3.U 5.H.I.J.K.L.M.N.O.P.Q.R.S.T.U.V.W.X.Y.Z.`. +F . ",
". 1.S *.=.5.;..+++J.@+#+$+%+&+&+*+T.=+-+;+>+,+'+)+!+~+{+]+^+/+. ",
". :.U 6.^./.(+_+-+:+<+&+&+&+[+}+|+1+2+`.3+4+5+6+7+8+9+0+r.W.a+. ",
". ;.b+c+d+e+f+g+h+&+&+&+i+j+k+l+U.T.m+n+o+R.p+q+r+}+s+t+|+u+v+. ",
". 6.w+e+x+y+z+A+&+&+B+C+g+D+z.E+&+&+h+F+D+G+k+`.H+I+J+K+L+M+'.. ",
". U (.N+O+6+P+&+&+h+Q+R+*+&+&+S+N.j+T+U+p.V+W+X+{.1.V / !.7 Y+. ",
". {.^.Z+r.R.&+&+`+ @.@&+&+A++@@@#@$@%@&@*@=@-@(+6.;@P >@L +.> . ",
". S 6.,@'@&+&+&+Q.&+&+&+)@!@~@{@]@^@/@(@_@:@<@_.6.{.j.B u !.[@. ",
". 1.$.u+ @&+&+&+&+&+}@|@`.1@2@3@4@5@6@=@7@8@9@N+0@U R P W a@b@. ",
". j.c@3+A+&+&+&+&+z.d@e@f@2@g@h@4@]@i@K.Z.9@=@j@(.6.S k@^ a +.. ",
". %.l@l+}@&+&+m@n@X.o@5@4@p@q@3@r@s@d@t@u@*@v@9@d+^.{.1.B M s . ",
". V V+w@x@&+&+y@t.z@w@A@B@3@C@D@E@F@G@:+H@I@*@=@J@/.].S V N L . ",
". K@L@|+G@&+M@k+N@O@P@^@A@Q@R@w@S@T@S.`.U@I@_@:@V@c+;.{.W@X@Y@. ",
". Z@X.`@ #&+.#+#@#,@##$#u@%#&#T.*#A+=#-#;#>#*@,#'#d+0@4.A V / . ",
". a 8 Z.T@B+)#m++@!#~#{#]#^#P.&+/#=#(#*@8@U@_#:#<#[#}#6.3.,.N . ",
". L >@|#1#2#E.3#4#*+&+&+&+5#6#7#u+8#:@_#'#V@-@c+(.0@0@9#3.1.[.. ",
". 9 M 0#a#b#c#d#e#f#. . . b.g#h#i#%@'#-@j#c+(.^.5.U T S 1.j.[.. ",
". 8 k#>@j.{.-.}#V@U@l#l#*@7@=@:#V@j#c+(.b+;.].{.~.z m#x n#>@W . ",
". 7 L o#P k.U 0@-@%@7@U@_#p#<#q#c+r#0@s#=.3.S <.j.x n#N #.a L . ",
". 7 !.M n#A T -.d+p#p#N+N+_.(.0@6.U :.S R j.d X@^ W { @.!.) t#. ",
". . u#@.^ %.S 9#(.N+d+(.r#H.v#U 3.k.<.%.x B ^ M a L r w#7 x#. . ",
"    . y#W [.k.=.b+(.0@v#U >.S 1.y V [.e / k#z#!.J q .. .p .     ",
"    . . . . . . . . . . . . . . . . . . . . . . . . . . . .     "};
